<svg width="24" height="24" viewBox="0 0 24 24" fill="none" xmlns="http://www.w3.org/2000/svg">
<path d="M10.4794 6C10.4794 7.65685 9.18995 9 7.59937 9C6.00879 9 4.71937 7.65685 4.71937 6C4.71937 4.34315 6.00879 3 7.59937 3C9.18995 3 10.4794 4.34315 10.4794 6ZM4.95937 10C4.03153 10 3.27937 10.7835 3.27937 11.75V16.5C3.27937 18.9853 5.21349 21 7.59937 21C9.98524 21 11.9194 18.9853 11.9194 16.5V11.75C11.9194 10.7835 11.1672 10 10.2394 10H4.95937ZM10.8251 20.8544C12.0746 19.8486 12.8793 18.2722 12.8793 16.5V11.75C12.8793 11.0852 12.6528 10.4755 12.2758 10H14.5593C15.4871 10 16.2393 10.7835 16.2393 11.75V16.5C16.2393 18.9853 14.3051 21 11.9193 21C11.5412 21 11.1746 20.9494 10.8251 20.8544ZM11.4393 6C11.4393 6.99943 11.0873 7.91324 10.5057 8.61436C10.9233 8.85989 11.4056 9 11.9193 9C13.5098 9 14.7993 7.65685 14.7993 6C14.7993 4.34315 13.5098 3 11.9193 3C11.4056 3 10.9233 3.14011 10.5057 3.38564C11.0873 4.08676 11.4393 5.00057 11.4393 6ZM15.1451 20.8544C16.3946 19.8486 17.1993 18.2722 17.1993 16.5V11.75C17.1993 11.0852 16.9728 10.4755 16.5958 10H18.8793C19.8071 10 20.5593 10.7835 20.5593 11.75V16.5C20.5593 18.9853 18.6251 21 16.2393 21C15.8612 21 15.4946 20.9494 15.1451 20.8544ZM15.7593 6C15.7593 6.99943 15.4073 7.91324 14.8257 8.61436C15.2433 8.85989 15.7256 9 16.2393 9C17.8298 9 19.1193 7.65685 19.1193 6C19.1193 4.34315 17.8298 3 16.2393 3C15.7256 3 15.2433 3.14011 14.8257 3.38564C15.4073 4.08676 15.7593 5.00057 15.7593 6Z" fill="white"/>
</svg>
